<?xml version="1.0" standalone="no"?>
<!DOCTYPE svg PUBLIC "-//W3C//DTD SVG 20010904//EN"
 "http://www.w3.org/TR/2001/REC-SVG-20010904/DTD/svg10.dtd">
<svg version="1.0" xmlns="http://www.w3.org/2000/svg"
 width="512.000000pt" height="512.000000pt" viewBox="0 0 512.000000 512.000000"
 preserveAspectRatio="xMidYMid meet">
<metadata>
Created by potrace 1.11, written by Peter Selinger 2001-2013
</metadata>
<g transform="translate(0.000000,512.000000) scale(0.100000,-0.100000)"
fill="#000000" stroke="none">
<path d="M2385 5113 c-625 -43 -1221 -321 -1661 -774 -757 -782 -938 -1956
-450 -2924 271 -535 705 -950 1254 -1195 212 -94 444 -160 697 -196 182 -27
516 -24 704 5 452 69 847 238 1211 519 205 158 459 444 603 678 272 445 406
985 369 1496 -46 652 -311 1224 -773 1673 -522 507 -1232 767 -1954 718z
m1375 -2553 l0 -1200 -1200 0 -1200 0 0 1200 0 1200 1200 0 1200 0 0 -1200z"/>
<path d="M1775 2520 l-29 -31 179 -179 180 -180 -183 -183 -182 -183 35 -34
35 -34 215 214 215 215 -212 212 c-117 117 -215 213 -219 213 -3 0 -18 -14
-34 -30z"/>
<path d="M2177 1773 c-4 -3 -7 -26 -7 -50 l0 -43 296 0 295 0 -3 48 -3 47
-286 3 c-157 1 -288 -1 -292 -5z"/>
</g>
</svg>
